<?xml version="1.0" encoding="UTF-8" ?>
<svg
   width="640px"
   height="640px"
   viewBox="0 0 640 640"
   xmlns="http://www.w3.org/2000/svg">
  <path
     d="m 2104,5181 -112,-226 -528,-5 -500,-896 747,-1357 -109,-257 -905,1606 645,1144 z m 3767,-1134 -893,-1587 -138,210 765,1362 -511,923 H 3286 l -126,221 2071,9 z M 3030,4960 2647,4275 2771,4049 2638,3828 2517.5919,3998.4256 2124,3383 l -394,664 285,436 140.9053,-184.6203 -156.0467,-259.53 L 2141,3837 2406.4753,4244.7188 2105.8971,4710.2295 2255,4960 l 249,-8 -113,-212 125,-215 380,655 z m 1030,-909 -126,-228 -135,200 -246,-429 127,-232 -129,-236 -136,206 -260,-437 -780,5 -134,242 267,438 132,-215 -110,-216 499,-9 120,215 -255,6 -134,227 133,219 263,-424 124,212 -389,682 143,225 256,-7 -132,-215 261,-435 248,421 -247,463 257,11 z m 525,-689 128,-223 -776,-4 -117,217 z M 4700,2904 4188,1989 4314.9121,1752.2915 4705,2428 4839,2204 4458,1543 4189.7722,1542.4043 3801,2215 l 131,215 126,-200 261,445 -764,6 -133,211 z m -1930,-225 -246,-454 -274,-2 251,467 z m 774,-460 -250,-2 -268,455 258,3 z M 2123,1990 h 505 l 266,437 259,-437 h 524 l 123,-226 -772,1 -129,209 -120,-214 h -788 l -271,444 144,236 z m 1557,-469 -368.4307,-700.51741 -806.9789,-1.58638 -402.3124,715.97399 389.324,-200.3469 176.0757,-314.6618 443.139,4.2984 172.5172,309.5334 -793.4869,0.5838 -393.2234,199.4162 z M 4320,1291 4095.3547,825.69591 3526.7359,828.63476 3675,1085 l 258,3 122,212 z"
     transform="matrix(0.1,0,0,-0.1,-8.4,621.5)"
   />
</svg>
